PathFileType	4	(X/Y/Z)	./resultDataOpenSim/trcMotMarkerGrf/sub09/qtm-13-03.trc
DataRate	CameraRate	NumFrames	NumMarkers	Units	OrigDataRate	OrigDataStartFrame	OrigNumFrames
250.000000	250.000000	11	24	m	250.000000	447	510
Frame#	Time	L.Toe.Tip			R.Toe.Tip			L.Ankle.Lat			R.Ankle.Lat			L.Ankle.Med			R.Ankle.Med			L.Heel			R.Heel			L.Knee.Lat			R.Knee.Lat			L.Knee.Med			R.Knee.Med			L.Thigh.Upper			R.Thigh.Upper			L.ASIS			R.ASIS			V.Sacral			L.Acromium			R.Acromium			C7			L.Elbow			R.Elbow			L.Wrist.Lat			R.Wrist.Lat
		X1	Y1	Z1	X2	Y2	Z2	X3	Y3	Z3	X4	Y4	Z4	X5	Y5	Z5	X6	Y6	Z6	X7	Y7	Z7	X8	Y8	Z8	X9	Y9	Z9	X10	Y10	Z10	X11	Y11	Z11	X12	Y12	Z12	X13	Y13	Z13	X14	Y14	Z14	X15	Y15	Z15	X16	Y16	Z16	X17	Y17	Z17	X18	Y18	Z18	X19	Y19	Z19	X20	Y20	Z20	X21	Y21	Z21	X22	Y22	Z22	X23	Y23	Z23	X24	Y24	Z24

447	1.784	1.7198769	0.088024901	-0.10470837	0.99371992	0.040186199	0.040134968	1.5621561	0.078300428	-0.13007982	0.86996952	0.10744455	0.08494036	1.5894746	0.10333451	-0.037660907	0.89926758	0.14619972	-0.0043944831	1.5128796	0.020944062	-0.076585666	0.79663442	0.11811969	0.032973693	1.4559511	0.48238788	-0.15879657	1.1498208	0.4784722	0.14519757	1.4697341	0.4783431	-0.034125802	1.1334589	0.47171683	0.020789725	1.2673991	0.85521048	-0.18479781	1.2186357	0.87583902	0.18626242	1.3391242	0.94639452	-0.11907725	1.3283258	0.95562484	0.12338741	1.1635883	0.99851319	-0.014810943	1.2901147	1.3990952	-0.18573599	1.2847235	1.420152	0.14564207	1.2205578	1.4572963	-0.020763016	1.1295557	1.0672011	-0.24257013	1.1560002	1.0784277	0.25527522	1.2538282	0.83866543	-0.29857374	1.3547217	0.88329225	0.26968791
448	1.788	1.7235368	0.083620845	-0.10322413	0.99421171	0.040420387	0.039937574	1.565412	0.077922272	-0.1297941	0.87298913	0.10998005	0.085836928	1.593096	0.10254619	-0.037333346	0.90174952	0.14803024	-0.0036287968	1.5141105	0.022543948	-0.076562735	0.79875149	0.12159084	0.033618139	1.4622468	0.48213332	-0.15919801	1.1561248	0.47760924	0.14552003	1.4758989	0.47797608	-0.03449189	1.1397413	0.47032052	0.020818197	1.2735855	0.85476723	-0.18553462	1.2248433	0.87485093	0.18544351	1.3452643	0.94615924	-0.11963007	1.3346599	0.95478951	0.12273407	1.1696441	0.99798561	-0.015352104	1.2956393	1.398704	-0.18629223	1.2899424	1.4194852	0.1451627	1.2258382	1.4567417	-0.021298572	1.1357205	1.0665942	-0.24322606	1.1613049	1.0776993	0.25409105	1.2599003	0.83803515	-0.29933473	1.3590799	0.88183497	0.26963146
449	1.792	1.727166	0.080001946	-0.10172234	0.99469804	0.040630022	0.039944059	1.5689512	0.077714591	-0.12985024	0.87535746	0.11247204	0.086732285	1.5965584	0.10180809	-0.037190893	0.90436606	0.149906	-0.0027940564	1.5153611	0.024296447	-0.07711025	0.80103241	0.1251929	0.034379183	1.4685403	0.4822028	-0.15961036	1.1627221	0.47672595	0.14576402	1.4819387	0.4776862	-0.034783396	1.1462449	0.46887779	0.020864227	1.2800298	0.8544457	-0.18630661	1.2310198	0.87384419	0.18462735	1.3513596	0.94603183	-0.12020135	1.3409763	0.95398235	0.12207566	1.1756708	0.99757526	-0.015907005	1.3011944	1.398353	-0.18688231	1.2951828	1.4188877	0.14470934	1.2311717	1.4563118	-0.021862434	1.1419268	1.06601	-0.24387676	1.1666138	1.0770198	0.25287634	1.2660043	0.83742858	-0.30007918	1.3634281	0.88038847	0.26956246
450	1.796	1.7305009	0.076896366	-0.10010439	0.99517521	0.04080647	0.040244089	1.5725104	0.077528255	-0.13016387	0.87671768	0.11487047	0.087579813	1.5993813	0.10103266	-0.037147636	0.90712779	0.15182728	-0.0018899857	1.5165931	0.025845875	-0.078160151	0.8035042	0.12893383	0.035242775	1.4750145	0.48269543	-0.16007669	1.1695689	0.475822	0.14592477	1.4879061	0.47763556	-0.035044756	1.1529961	0.46746525	0.020980037	1.2866978	0.85432607	-0.18713065	1.2371956	0.87280051	0.18381096	1.3574232	0.94604325	-0.12078388	1.3472811	0.95320497	0.12141627	1.1816737	0.99726426	-0.016483402	1.3067769	1.3980566	-0.18749805	1.3004256	1.4183593	0.1442817	1.2365948	1.4559765	-0.022471965	1.1481737	1.0654384	-0.24453695	1.1718857	1.0764005	0.25161312	1.272146	0.83685188	-0.30081698	1.3677454	0.87896269	0.26949338
451	1.8	1.7333725	0.073943991	-0.098403124	0.99568498	0.040977409	0.040760232	1.5758521	0.077334356	-0.13060022	0.87762022	0.1172844	0.088374442	1.601597	0.10029019	-0.037194172	0.9100523	0.15379693	-0.0009270714	1.5178496	0.026996657	-0.079490453	0.8062004	0.13281438	0.036170916	1.4818672	0.48362753	-0.16063744	1.1765298	0.47493089	0.14604802	1.4938083	0.47794872	-0.035318209	1.1599906	0.46610839	0.021167373	1.2935477	0.85447026	-0.18798157	1.2433672	0.87170923	0.18300604	1.3634617	0.94623064	-0.12134902	1.3535527	0.9524699	0.12075484	1.1876504	0.99703888	-0.017062785	1.3123845	1.3978371	-0.18811555	1.3056648	1.4179058	0.14387022	1.2421162	1.4556965	-0.023135324	1.1544665	1.0648851	-0.24521828	1.1771512	1.0758555	0.25033148	1.2783266	0.83631826	-0.30155571	1.3720392	0.87756949	0.26942246
452	1.804	1.7356905	0.070926114	-0.096830512	0.99626549	0.041186067	0.041353447	1.5788214	0.077158835	-0.13106739	0.87894704	0.11988027	0.089141975	1.6035595	0.099694159	-0.037369533	0.91316687	0.15581927	8.1392762e-05	1.5191013	0.027832135	-0.081056686	0.80915648	0.13683541	0.037119674	1.4891752	0.48490442	-0.16126557	1.1834639	0.47409975	0.14621342	1.499618	0.47863122	-0.035632548	1.1672188	0.46480092	0.021428194	1.3005348	0.85490831	-0.18883063	1.2495859	0.87058025	0.1822157	1.3694795	0.94661918	-0.1218922	1.3597666	0.95179123	0.12008608	1.1936018	0.99688477	-0.017601813	1.3180208	1.3977042	-0.18871187	1.3109143	1.4175393	0.14345866	1.2476838	1.4554662	-0.023831311	1.1608143	1.0643739	-0.24592449	1.1824953	1.0754074	0.2491065	1.2845366	0.83584201	-0.3022909	1.3763203	0.87621818	0.26934207
453	1.808	1.7374718	0.067813512	-0.095518418	0.99691038	0.041438047	0.041913051	1.5813517	0.077001365	-0.13153296	0.88107126	0.12270309	0.089932863	1.6054205	0.099234629	-0.037665157	0.91650709	0.15789303	0.0011298489	1.5202251	0.028580926	-0.082911101	0.81239974	0.14100268	0.038052462	1.4968061	0.48635692	-0.16186671	1.1902852	0.47335295	0.14649463	1.5053181	0.47954471	-0.035994341	1.1747015	0.46351239	0.021774454	1.3076197	0.85563337	-0.18968056	1.2559236	0.86945645	0.1814361	1.3754757	0.94721303	-0.12244039	1.3659089	0.95117829	0.11940101	1.1995356	0.9967862	-0.01806123	1.3236889	1.3976471	-0.18927432	1.316194	1.4172721	0.14303404	1.2532236	1.4553078	-0.024512012	1.1672237	1.0639408	-0.24664376	1.187944	1.0750725	0.24798254	1.2907683	0.83542794	-0.30300753	1.380575	0.87491553	0.26925048
454	1.812	1.7388378	0.064657325	-0.094376774	0.99759217	0.041692914	0.042356743	1.5834655	0.076815453	-0.13198514	0.88379811	0.12566954	0.090808677	1.6070528	0.098796368	-0.03801186	0.92010872	0.16001194	0.00222263	1.5211245	0.029339327	-0.084798892	0.81593952	0.14532455	0.038948661	1.5044615	0.48781473	-0.16232432	1.1969988	0.47269128	0.1469223	1.5109528	0.48048008	-0.036383734	1.1824594	0.46221747	0.02220755	1.3147611	0.856608	-0.19055632	1.2624126	0.86839161	0.18066403	1.3814479	0.94799624	-0.12302295	1.3719859	0.95063956	0.11868999	1.2054633	0.99672049	-0.018423912	1.3293833	1.3976529	-0.1897975	1.3215093	1.417112	0.14259177	1.2587026	1.4552205	-0.02513641	1.1736909	1.0636124	-0.24736005	1.1934208	1.074842	0.24691164	1.2970289	0.83507277	-0.30369499	1.3847736	0.8736686	0.26915295
455	1.816	1.7399421	0.061463814	-0.093268229	0.99830155	0.0419075	0.042652009	1.5852806	0.076540076	-0.13240334	0.88685548	0.1287204	0.091777976	1.6083768	0.098295814	-0.038341894	0.92398602	0.16217889	0.0033642279	1.5218321	0.030001584	-0.086187609	0.81976726	0.14981027	0.039807015	1.5118723	0.48914904	-0.16257982	1.2038149	0.47209975	0.1474585	1.5166154	0.48129212	-0.036773127	1.1904184	0.46094628	0.022710581	1.3218735	0.85777658	-0.19145933	1.2690657	0.86740527	0.1798851	1.387404	0.94893578	-0.12365631	1.3780252	0.9501805	0.11794588	1.2113926	0.9966555	-0.018703322	1.3350901	1.3977166	-0.19027825	1.3268481	1.4170593	0.14213393	1.2641313	1.4551688	-0.025693238	1.1802011	1.0633859	-0.24806757	1.1988456	1.0746796	0.24576211	1.3033315	0.83477608	-0.30435672	1.3889025	0.87248274	0.26905498
456	1.82	1.7409238	0.058193094	-0.092156559	0.99902759	0.042074569	0.042835006	1.5869656	0.076144624	-0.13275704	0.8901293	0.13189158	0.092782398	1.6095063	0.09772523	-0.038616013	0.92811609	0.16442036	0.0045476909	1.522497	0.030455395	-0.08679127	0.82386497	0.15447533	0.040639222	1.5189838	0.49026962	-0.16269639	1.2111046	0.47154149	0.14802431	1.5222722	0.48199092	-0.03719208	1.198447	0.45975098	0.023265082	1.3288356	0.85907728	-0.19236346	1.2758722	0.86648116	0.17908425	1.3933642	0.94998784	-0.1243514	1.3840582	0.94979506	0.11716291	1.2173264	0.99656155	-0.01894049	1.3407975	1.3978333	-0.19071458	1.332195	1.4170983	0.1416665	1.2695183	1.4551119	-0.026199671	1.1867384	1.0632395	-0.24876365	1.2042706	1.0745474	0.24437804	1.3096812	0.83454521	-0.30500142	1.3929719	0.8713629	0.26895557
457	1.824	1.7419086	0.054874617	-0.091072584	0.9997389	0.042238279	0.042957928	1.5886484	0.075657054	-0.13301192	0.89358135	0.13525233	0.093784879	1.6106318	0.097110999	-0.038799661	0.93245645	0.16678355	0.0057555268	1.5232351	0.03077369	-0.086879185	0.82821874	0.15934663	0.041460303	1.5259217	0.49111771	-0.16282386	1.2190686	0.47097266	0.14858087	1.5275496	0.48271655	-0.037789717	1.2065161	0.45861769	0.023885047	1.3355716	0.86044621	-0.1932648	1.2827378	0.86560959	0.17826698	1.3993476	0.95110873	-0.12511484	1.3900983	0.94946907	0.11633705	1.223267	0.99642478	-0.019185153	1.3465023	1.3979958	-0.19110748	1.3375479	1.417194	0.14119588	1.2748539	1.4550254	-0.026684055	1.1932932	1.0631629	-0.24943979	1.2098736	1.0744556	0.24269681	1.3160758	0.83439066	-0.30563393	1.3969949	0.87031701	0.26884846
